HIERARCHY
ROOT Hips
{
	OFFSET 0.00 0.00 0.00
	CHANNELS 6 Xposition Yposition Zposition Yrotation Xrotation Zrotation
	JOINT Spine
	{
		OFFSET	0.0000	9.2263	1.5771
		CHANNELS 3 Xrotation Yrotation Zrotation
		JOINT Spine1
		{
			OFFSET	0.0000	16.2540	-0.1656
			CHANNELS 3 Xrotation Yrotation Zrotation
			JOINT Spine2
			{
				OFFSET	0.0000	13.6396	-1.2923
				CHANNELS 3 Xrotation Yrotation Zrotation
				JOINT Neck
				{
					OFFSET	0.0000	13.8774	-4.3542
					CHANNELS 3 Xrotation Yrotation Zrotation
					JOINT Neck1
					{
						OFFSET	0.0000	4.3400	0.9269
						CHANNELS 3 Xrotation Yrotation Zrotation
						JOINT Head
						{
							OFFSET	0.0000	4.0266	0.8585
							CHANNELS 3 Xrotation Yrotation Zrotation
							End Site
							{
								OFFSET 0.0000 23.0297 0.1231
							}
						}
					}
				}
				JOINT LeftShoulder
				{
					OFFSET	6.1442	10.1870	-3.7932
					CHANNELS 3 Zrotation Xrotation Yrotation
					JOINT LeftArm
					{
						OFFSET	12.3191	-1.1130	-1.7935
						CHANNELS 3 Zrotation Xrotation Yrotation
						JOINT LeftForeArm
						{
							OFFSET	27.6870	0.0000	0.0000
							CHANNELS 3 Xrotation Zrotation Yrotation
							JOINT LeftHand
							{
								OFFSET	27.8738	0.0000	0.0000
								CHANNELS 3 Zrotation Yrotation Xrotation
								JOINT LeftHandThumb1
								{
									OFFSET	2.3785	-1.0029	2.6209
									CHANNELS 3 Zrotation Xrotation Yrotation
									JOINT LeftHandThumb2
									{
										OFFSET	3.3624	-1.0029	2.8398
										CHANNELS 3 Zrotation Xrotation Yrotation
										JOINT LeftHandThumb3
										{
											OFFSET	4.5018	-1.3445	2.1783
											CHANNELS 3 Zrotation Xrotation Yrotation
											End Site
											{
												OFFSET 2.6000 -1.0000 1.0000
											}
										}
									}
								}
								JOINT LeftHandMiddle1
								{
									OFFSET	10.4639	0.6148	0.4298
									CHANNELS 3 Zrotation Xrotation Yrotation
									JOINT LeftHandMiddle2
									{
										OFFSET	5.7921	0.0000	0.0000
										CHANNELS 3 Zrotation Xrotation Yrotation
										JOINT LeftHandMiddle3
										{
											OFFSET	3.7132	0.0000	0.0000
											CHANNELS 3 Zrotation Xrotation Yrotation
											End Site
											{
												OFFSET 2.3000 0.0000 0.0000
											}
										}
									}
								}
								JOINT LeftHandIndex1
								{
									OFFSET	10.3945	0.6148	2.7055
									CHANNELS 3 Zrotation Xrotation Yrotation
									JOINT LeftHandIndex2
									{
										OFFSET	5.5493	0.0000	0.0000
										CHANNELS 3 Zrotation Xrotation Yrotation
										JOINT LeftHandIndex3
										{
											OFFSET	3.3911	0.0000	0.0000
											CHANNELS 3 Zrotation Xrotation Yrotation
											End Site
											{
												OFFSET 2.5000 0.0000 0.0000
											}
										}
									}
								}
								JOINT LeftHandRing1
								{
									OFFSET	10.3252	0.3211	-1.8755
									CHANNELS 3 Zrotation Xrotation Yrotation
									JOINT LeftHandRing2
									{
										OFFSET	5.4452	0.0000	0.0000
										CHANNELS 3 Zrotation Xrotation Yrotation
										JOINT LeftHandRing3
										{
											OFFSET	3.7132	0.0000	0.0000
											CHANNELS 3 Zrotation Xrotation Yrotation
											End Site
											{
												OFFSET 2.0000 0.0000 0.0000
											}
										}
									}
								}
								JOINT LeftHandPinky1
								{
									OFFSET	10.0130	-0.0783	-3.9671
									CHANNELS 3 Zrotation Xrotation Yrotation
									JOINT LeftHandPinky2
									{
										OFFSET	3.6763	0.0000	0.0000
										CHANNELS 3 Zrotation Xrotation Yrotation
										JOINT LeftHandPinky3
										{
											OFFSET	2.8113	0.0000	0.0000
											CHANNELS 3 Zrotation Xrotation Yrotation
											End Site
											{
												OFFSET 2.9000 0.0000 0.0000
											}
										}
									}
								}
							}
						}
					}
				}
				JOINT RightShoulder
				{
					OFFSET	-6.1402	10.1870	-3.7932
					CHANNELS 3 Zrotation Xrotation Yrotation
					JOINT RightArm
					{
						OFFSET	-12.3231	-1.1130	-1.7935
						CHANNELS 3 Zrotation Xrotation Yrotation
						JOINT RightForeArm
						{
							OFFSET	-27.6870	0.0000	0.0000
							CHANNELS 3 Xrotation Zrotation Yrotation
							JOINT RightHand
							{
								OFFSET	-27.8738	0.0000	0.0000
								CHANNELS 3 Zrotation Yrotation Xrotation
								JOINT RightHandThumb1
								{
									OFFSET	-2.5178	-0.9367	2.5137
									CHANNELS 3 Zrotation Xrotation Yrotation
									JOINT RightHandThumb2
									{
										OFFSET	-3.2638	-1.0870	2.9669
										CHANNELS 3 Zrotation Xrotation Yrotation
										JOINT RightHandThumb3
										{
											OFFSET	-4.4165	-1.3703	2.1350
											CHANNELS 3 Zrotation Xrotation Yrotation
											End Site
											{
												OFFSET -2.6000 -1.0000 1.0000
											}
										}
									}
								}
								JOINT RightHandIndex1
								{
									OFFSET	-10.4665	0.4896	2.7120
									CHANNELS 3 Zrotation Xrotation Yrotation
									JOINT RightHandIndex2
									{
										OFFSET	-5.3768	0.0000	0.0000
										CHANNELS 3 Zrotation Xrotation Yrotation
										JOINT RightHandIndex3
										{
											OFFSET	-3.3855	0.0000	0.0000
											CHANNELS 3 Zrotation Xrotation Yrotation
											End Site
											{
												OFFSET -2.6000 0.0000 0.0000
											}
										}
									}
								}
								JOINT RightHandMiddle1
								{
									OFFSET	-10.7596	0.4896	0.4278
									CHANNELS 3 Zrotation Xrotation Yrotation
									JOINT RightHandMiddle2
									{
										OFFSET	-5.6168	0.0000	0.0000
										CHANNELS 3 Zrotation Xrotation Yrotation
										JOINT RightHandMiddle3
										{
											OFFSET	-3.7364	0.0000	0.0000
											CHANNELS 3 Zrotation Xrotation Yrotation
											End Site
											{
												OFFSET -2.3000 0.0000 0.0000
											}
										}
									}
								}
								JOINT RightHandRing1
								{
									OFFSET	-10.4702	0.3879	-1.9363
									CHANNELS 3 Zrotation Xrotation Yrotation
									JOINT RightHandRing2
									{
										OFFSET	-5.4013	0.0000	0.0000
										CHANNELS 3 Zrotation Xrotation Yrotation
										JOINT RightHandRing3
										{
											OFFSET	-3.3916	0.0000	0.0000
											CHANNELS 3 Zrotation Xrotation Yrotation
											End Site
											{
												OFFSET -2.2000 0.0000 0.0000
											}
										}
									}
								}
								JOINT RightHandPinky1
								{
									OFFSET	-9.9715	-0.1191	-3.9540
									CHANNELS 3 Zrotation Xrotation Yrotation
									JOINT RightHandPinky2
									{
										OFFSET	-3.6528	0.0000	0.0000
										CHANNELS 3 Zrotation Xrotation Yrotation
										JOINT RightHandPinky3
										{
											OFFSET	-2.7820	0.0000	0.0000
											CHANNELS 3 Zrotation Xrotation Yrotation
											End Site
											{
												OFFSET -2.9000 0.0000 0.0000
											}
										}
									}
								}
							}
						}
					}
				}
			}
		}
	}
	JOINT LeftUpLeg
	{
		OFFSET	9.6338	-3.2733	0.0000
		CHANNELS 3 Xrotation Yrotation Zrotation
		JOINT LeftLeg
		{
			OFFSET	0.0000	-41.7300	-1.7300
			CHANNELS 3 Xrotation Yrotation Zrotation
			JOINT LeftFoot
			{
				OFFSET	0.0126	-39.1900	-0.8477
				CHANNELS 3 Xrotation Yrotation Zrotation
				JOINT LeftToeBase
				{
					OFFSET	-0.1833	-12.1931	8.2823
					CHANNELS 3 Xrotation Yrotation Zrotation
					End Site
					{
						OFFSET 0.0000 0.0000 10.1681
					}
				}
			}
		}
	}
	JOINT RightUpLeg
	{
		OFFSET	-9.6338	-3.2733	0.0000
		CHANNELS 3 Xrotation Yrotation Zrotation
		JOINT RightLeg
		{
			OFFSET	0.0000	-41.7300	-1.7300
			CHANNELS 3 Xrotation Yrotation Zrotation
			JOINT RightFoot
			{
				OFFSET	0.0126	-39.1900	-0.8477
				CHANNELS 3 Xrotation Yrotation Zrotation
				JOINT RightToeBase
				{
					OFFSET	-0.1833	-12.1931	8.2823
					CHANNELS 3 Xrotation Yrotation Zrotation
					End Site
					{
						OFFSET 0.0032 0.0000 10.1681
					}
				}
			}
		}
	}
}
MOTION
Frames: 7
Frame Time: 0.0416667
0.0805 80.9783 -0.2635 -18.9314 19.8671 -10.0759 14.9595 11.8559 0.9789 1.1254 3.0435 0.7188 1.1611 3.0035 0.6983 -7.3979 -1.7156 1.3620 -0.0000 0.0000 -0.0000 -24.4629 4.4225 -3.8247 -12.3536 0.0637 3.1761 -63.1001 4.0346 44.4918 -0.0000 0.0000 -65.6527 14.6510 -12.7024 18.5273 13.9492 -2.0560 3.9925 -15.6158 2.3326 13.7520 22.2946 -13.6231 -27.4754 -44.9381 0.0048 -8.7633 -66.2312 0.0090 -0.0138 -33.6904 0.0025 -0.0083 -24.0375 2.9868 -15.7527 -79.0576 0.0122 -0.0148 -30.5759 0.0021 -0.0076 -48.4884 0.0056 -7.3740 -77.0288 0.0117 -0.0146 -28.8742 0.0019 -0.0073 -54.3459 0.0069 -5.2662 -57.6450 0.0070 -0.0127 -33.9176 0.0026 -0.0084 18.5052 3.3714 9.8794 39.8870 -7.7794 30.6619 -0.0000 -0.0000 101.3919 -3.5333 10.8800 38.9035 4.4421 -3.8509 -5.1377 4.1203 9.8106 -10.3874 -10.1380 -17.0156 23.8652 58.1515 0.7302 8.3461 60.8674 0.0041 0.0069 34.8912 0.0014 0.0045 60.7682 0.0043 6.8965 71.8935 0.0055 0.0075 55.1408 0.0034 0.0065 74.7015 0.0061 8.8980 77.7503 0.0062 0.0077 44.1278 0.0022 0.0055 79.5053 0.0068 6.1527 81.2447 0.0067 0.0078 71.3987 0.0054 0.0075 -74.2287 -0.9091 18.3483 124.5827 -0.8993 0.9901 -6.9979 -0.7706 13.6642 -6.0087 0.0000 -0.0000 -29.1880 0.4771 3.8987 58.1959 7.1718 -4.1859 -38.6338 -1.2757 3.2191 -10.9732 0.0000 -0.0000 
0.7446 82.5450 17.6986 -13.8157 21.1783 -2.6600 13.8227 14.8674 -5.4638 0.7938 4.2407 -0.1544 0.8102 4.2259 -0.1701 -7.5329 -2.5667 0.4786 -0.0000 0.0000 -0.0000 -22.6952 -6.2782 -3.9911 -9.9683 0.1394 2.6985 -57.3199 7.5396 56.9309 -0.0000 0.0000 -74.5290 13.5708 -12.0798 17.5944 13.9492 -2.0560 3.9925 -15.4586 2.3970 13.4069 21.8156 -13.4904 -27.0952 -44.7874 0.0057 -9.7774 -66.7728 0.0091 -0.0138 -33.9207 0.0026 -0.0084 -22.2426 3.4662 -15.6620 -81.0093 0.0127 -0.0148 -30.4840 0.0021 -0.0076 -47.8552 0.0053 -7.3369 -78.1588 0.0120 -0.0147 -28.5576 0.0018 -0.0072 -53.2764 -0.0482 -5.2589 -58.1476 0.0071 -0.0128 -33.9627 0.0026 -0.0084 14.5787 2.3419 7.3569 36.8433 -16.2894 33.6951 0.0000 -0.0000 111.6505 -27.8549 15.8477 43.1371 4.4421 -3.8509 -5.1377 3.8273 9.6776 -9.7989 -10.2561 -17.0034 23.8817 59.8535 1.2921 8.9487 60.5596 0.0040 0.0069 35.0749 0.0014 0.0046 61.5593 0.0049 5.2003 70.8728 0.0053 0.0075 55.7332 0.0035 0.0065 73.6027 0.0060 8.9513 78.8872 0.0064 0.0078 44.6030 0.0023 0.0055 79.0097 0.0041 6.3917 83.0649 0.0070 0.0078 71.7469 0.0054 0.0075 -86.7575 1.6236 13.0946 112.4981 -3.0183 0.7760 -10.2538 -0.6146 12.7321 0.9686 -0.0000 -0.0000 -11.2631 -4.1879 -6.3998 38.6265 9.4758 -6.2599 -20.1829 0.8815 7.4189 -27.4464 0.0098 -0.4555 
0.9192 84.6014 35.9076 -4.9119 23.7195 4.3762 11.2051 14.8350 -9.8685 0.6311 4.4624 -1.0075 0.6115 4.4727 -1.0180 -7.4772 -3.1671 -0.1942 -0.0000 0.0000 -0.0000 -19.9059 -15.4688 -2.7056 -9.1685 0.7037 -0.7458 -51.6781 12.7155 63.8962 -0.0000 -0.0000 -81.5383 11.4189 -11.7570 16.9236 13.9492 -2.0560 3.9925 -15.3686 2.4702 13.1865 23.1229 -13.8113 -28.0121 -44.1369 0.0045 -11.5398 -67.0176 0.0092 -0.0138 -34.4273 0.0026 -0.0085 -17.2548 4.3208 -15.2344 -80.6263 0.0126 -0.0148 -30.4312 0.0021 -0.0076 -48.0532 0.0055 -7.7076 -78.6025 0.0121 -0.0147 -29.4193 0.0019 -0.0074 -54.2066 -0.1140 -5.1660 -57.9390 0.0071 -0.0127 -34.3350 0.0026 -0.0085 13.8906 1.5433 3.8368 34.1695 -26.9284 25.2681 0.0000 0.0000 123.8982 -9.5828 12.4672 33.2490 4.4421 -3.8509 -5.1377 4.9928 10.0046 -12.1103 -11.5749 -16.6891 25.3718 57.9366 1.5930 8.2276 58.0723 0.0037 0.0067 36.4473 0.0015 0.0047 59.5568 0.0042 6.6177 69.3171 0.0051 0.0074 56.0825 0.0035 0.0066 72.5786 0.0058 7.6705 74.1375 0.0058 0.0076 43.8112 0.0022 0.0055 78.6898 -0.2724 5.8667 80.1493 0.0066 0.0078 70.4220 0.0053 0.0075 -90.6791 4.2208 4.2315 90.8216 -0.1074 0.4889 -8.6377 0.1875 3.5577 0.2334 -0.0000 0.0000 4.6000 -11.5980 -10.7586 14.8280 6.5213 -4.8140 7.5778 0.4861 12.7170 -20.2559 -0.0182 1.6411 
1.0000 85.9816 54.1052 1.9704 24.3878 4.8085 8.4386 13.2290 -7.8136 0.5441 3.8796 -1.1780 0.5179 3.8903 -1.1914 -6.9994 -3.5601 0.0418 -0.0000 0.0000 -0.0000 -19.1633 -19.4719 -0.9483 -9.8190 0.8127 -1.2504 -51.3320 16.2209 61.8306 -0.0000 0.0000 -82.6174 13.0586 -12.1762 16.5005 13.9492 -2.0560 3.9925 -16.0371 2.3594 14.5616 23.4784 -13.9420 -28.4376 -44.1424 0.0058 -13.1665 -67.2940 0.0092 -0.0139 -35.6551 0.0028 -0.0088 -12.1401 5.0580 -14.3932 -81.8816 0.0129 -0.0149 -30.8269 0.0021 -0.0077 -48.7289 0.0056 -7.8180 -78.9545 0.0122 -0.0148 -31.0932 0.0022 -0.0078 -54.6699 -0.0568 -5.4968 -57.8147 0.0070 -0.0127 -35.5134 0.0028 -0.0087 16.6363 1.4881 2.8311 27.8957 -23.6612 17.8734 -0.0000 -0.0000 125.6550 -6.9251 8.5013 34.4840 4.4421 -3.8509 -5.1377 7.4121 10.0037 -16.7834 -12.2551 -16.3880 26.7244 56.5441 2.1208 7.6958 57.5686 0.0037 0.0067 36.6799 0.0016 0.0047 59.6321 0.0041 7.0712 68.8562 0.0050 0.0074 56.3695 0.0035 0.0066 72.8008 0.0059 7.6724 73.1692 0.0056 0.0076 43.8281 0.0022 0.0055 78.5911 -0.1023 6.0534 79.4747 0.0065 0.0078 70.5196 0.0053 0.0075 -85.9413 2.0275 -1.0785 66.3725 1.6693 0.0307 -5.0155 0.6933 -6.3444 0.2861 0.0000 -0.0000 11.0491 -8.5702 -4.9521 20.3547 2.5727 -4.9637 11.4789 1.3270 17.4504 -3.1186 0.0000 -0.0000 
1.2981 85.6928 71.7006 5.2558 22.3225 3.5582 8.5013 10.4303 -5.5873 0.8866 2.9859 -0.8956 0.8740 2.9873 -0.9211 -6.3908 -3.4557 0.3079 -0.0000 0.0000 -0.0000 -19.1357 -19.2519 1.1814 -12.6837 0.8378 -0.7867 -52.0264 15.4258 52.7039 -0.0000 0.0000 -82.9725 14.7891 -12.8324 16.7924 13.9492 -2.0560 3.9925 -16.6525 2.2324 15.8361 25.5132 -14.4075 -30.0514 -40.9588 0.0027 -14.3747 -69.8733 0.0099 -0.0141 -37.6549 0.0031 -0.0092 -3.4294 5.9095 -14.2895 -83.0893 0.0132 -0.0149 -31.2493 0.0022 -0.0078 -48.6754 0.0051 -7.4749 -82.9149 0.0132 -0.0149 -33.5061 0.0025 -0.0083 -50.5318 -0.1369 -5.4372 -58.5321 0.0072 -0.0128 -37.8251 0.0032 -0.0092 16.7890 1.9394 4.6939 27.2986 -9.9720 9.7935 -0.0000 -0.0000 119.9311 -8.6314 3.5821 38.5749 4.4421 -3.8509 -5.1377 5.3148 10.0052 -12.7392 -12.1581 -16.4843 25.9616 53.9768 2.5033 7.0783 57.2138 0.0036 0.0067 36.1707 0.0015 0.0047 59.1789 0.0051 7.6092 68.7500 0.0051 0.0074 58.1149 0.0037 0.0067 72.1951 0.0056 8.1637 72.5443 0.0055 0.0075 45.8586 0.0024 0.0057 77.9062 0.0005 6.4663 78.8795 0.0064 0.0078 71.6086 0.0054 0.0075 -76.7787 0.1854 -1.9355 50.5828 3.4484 -0.9757 -3.8244 0.9491 -12.2313 -0.5432 -0.0000 -0.0000 7.2870 -4.4322 -0.6873 49.3231 7.4728 -2.7515 7.2644 0.7760 18.4127 -7.4885 -0.0000 -0.0000 
1.6487 84.3771 89.2359 5.9383 19.3336 4.4563 10.5464 8.6018 -7.0990 1.6968 2.5174 -1.0820 1.6819 2.5071 -1.1287 -5.9502 -3.3016 0.5317 -0.0000 0.0000 -0.0000 -21.3617 -18.7150 3.1905 -16.1444 1.1801 -1.7370 -50.0452 14.5783 33.8475 0.0000 0.0001 -81.7429 15.1882 -13.9766 18.0109 13.9492 -2.0560 3.9925 -16.8279 2.2031 16.1947 28.2724 -14.9507 -32.0758 -39.0182 0.0034 -14.0450 -70.9573 0.0101 -0.0142 -39.1233 0.0034 -0.0095 1.9450 6.0235 -13.6266 -84.3584 0.0136 -0.0150 -31.7516 0.0023 -0.0079 -48.5763 0.0048 -7.0692 -85.6678 0.0139 -0.0150 -35.1074 0.0027 -0.0086 -45.8141 -0.0549 -5.8115 -59.1274 0.0073 -0.0129 -39.7821 0.0035 -0.0096 17.3087 1.9722 4.6779 33.1663 7.0335 1.4573 -0.0000 -0.0000 106.6751 -9.4250 4.9796 42.9890 4.4421 -3.8509 -5.1377 7.9175 10.0121 -17.7387 -15.1130 -15.7995 29.1175 49.6183 2.4431 6.1738 56.0697 0.0035 0.0066 35.6998 0.0015 0.0046 57.1026 0.0056 8.8468 68.8570 0.0051 0.0074 59.5913 0.0039 0.0068 71.4334 0.0057 7.9343 70.3663 0.0053 0.0075 47.3026 0.0025 0.0058 78.3897 -0.1706 6.0192 76.8664 0.0061 0.0077 71.5362 0.0054 0.0075 -67.2149 1.7325 -0.4920 50.2452 9.4802 -2.7603 -5.9214 0.9702 -8.7944 -1.1830 0.0000 0.0000 -0.9911 -4.0195 -1.5280 81.3665 5.0221 -0.8623 10.5540 0.7395 10.2549 -17.1238 0.0000 -0.0000 
2.0321 82.1982 105.5313 6.7238 18.1897 5.8959 12.1195 5.6507 -8.7828 1.8942 1.8282 -1.4636 1.8715 1.8276 -1.5070 -5.7950 -2.9955 0.6081 -0.0000 0.0000 -0.0000 -22.4830 -17.1958 6.1544 -19.4670 1.6084 -2.8128 -45.4408 14.6158 7.6401 -0.0000 0.0000 -75.3630 16.3198 -19.5221 17.9583 13.9492 -2.0560 3.9925 -16.9168 2.1892 16.3802 29.7358 -15.1908 -33.1476 -43.6090 0.0052 -13.9806 -70.5874 0.0101 -0.0142 -40.8288 0.0037 -0.0098 -2.5332 5.9850 -13.4248 -84.9265 0.0137 -0.0150 -31.9799 0.0023 -0.0080 -51.8254 0.0063 -7.3770 -86.3855 0.0141 -0.0150 -36.9591 0.0030 -0.0090 -46.4322 0.0044 -7.3651 -60.1629 0.0076 -0.0130 -41.5415 0.0038 -0.0100 18.0976 1.5484 2.7569 45.1270 18.0015 -4.9798 -0.0000 0.0000 84.6382 -10.8723 4.8107 41.0774 4.4421 -3.8509 -5.1377 8.8723 9.9934 -19.5421 -15.5770 -15.6382 29.7244 49.1283 1.6951 4.2205 58.8310 0.0038 0.0068 35.9729 0.0015 0.0047 56.0703 0.0034 10.3481 71.0604 0.0054 0.0075 56.0239 0.0035 0.0066 71.6690 0.0057 7.9548 72.7221 0.0056 0.0076 43.7507 0.0022 0.0055 79.0021 -0.6612 5.4750 77.2563 0.0062 0.0077 69.9080 0.0052 0.0074 -61.9537 3.8173 -0.5653 64.1686 9.0100 -3.3788 -19.5654 1.2614 -2.4576 -1.3686 -0.0000 -0.0000 -17.2899 -3.7138 -4.8164 114.2542 -0.1280 0.4269 5.4681 0.2400 7.2381 -14.9749 0.0000 -0.0000 
